<svg xmlns="http://www.w3.org/2000/svg" width="1024" height="1024" viewBox="0 0 1024 1024">
  <defs>
    <linearGradient id="bg" x1="180" y1="108" x2="860" y2="920" gradientUnits="userSpaceOnUse">
      <stop offset="0" stop-color="#9B7CFF"/>
      <stop offset="0.48" stop-color="#6C3BFF"/>
      <stop offset="1" stop-color="#09B6F2"/>
    </linearGradient>
    <radialGradient id="glowTop" cx="0" cy="0" r="1" gradientTransform="translate(230 145) rotate(48) scale(650 430)" gradientUnits="userSpaceOnUse">
      <stop stop-color="#FFFFFF" stop-opacity="0.78"/>
      <stop offset="0.38" stop-color="#FFFFFF" stop-opacity="0.24"/>
      <stop offset="1" stop-color="#FFFFFF" stop-opacity="0"/>
    </radialGradient>
    <radialGradient id="glowBlue" cx="0" cy="0" r="1" gradientTransform="translate(748 728) rotate(44) scale(460 370)" gradientUnits="userSpaceOnUse">
      <stop stop-color="#7EEBFF" stop-opacity="0.7"/>
      <stop offset="1" stop-color="#7EEBFF" stop-opacity="0"/>
    </radialGradient>
    <linearGradient id="mark" x1="322" y1="275" x2="720" y2="750" gradientUnits="userSpaceOnUse">
      <stop stop-color="#FFFFFF"/>
      <stop offset="1" stop-color="#E9E2FF"/>
    </linearGradient>
    <filter id="softShadow" x="16" y="24" width="992" height="992" color-interpolation-filters="sRGB" filterUnits="userSpaceOnUse">
      <feDropShadow dx="0" dy="30" stdDeviation="36" flood-color="#1B1147" flood-opacity="0.34"/>
      <feDropShadow dx="0" dy="4" stdDeviation="10" flood-color="#180C3E" flood-opacity="0.24"/>
    </filter>
    <filter id="markShadow" x="240" y="220" width="560" height="600" color-interpolation-filters="sRGB" filterUnits="userSpaceOnUse">
      <feDropShadow dx="0" dy="12" stdDeviation="13" flood-color="#190A50" flood-opacity="0.28"/>
    </filter>
    <clipPath id="squircle">
      <rect x="72" y="72" width="880" height="880" rx="228"/>
    </clipPath>
  </defs>
  <g filter="url(#softShadow)">
    <rect x="72" y="72" width="880" height="880" rx="228" fill="url(#bg)"/>
    <g clip-path="url(#squircle)">
      <ellipse cx="188" cy="110" rx="520" ry="360" fill="url(#glowTop)"/>
      <ellipse cx="780" cy="740" rx="360" ry="310" fill="url(#glowBlue)"/>
      <ellipse cx="120" cy="840" rx="430" ry="250" fill="#4312C5" opacity="0.24"/>
      <path d="M646 308C723 362 770 438 770 520C770 604 721 681 641 735" fill="none" stroke="#FFFFFF" stroke-width="28" stroke-linecap="round" opacity="0.22"/>
      <path d="M606 385C651 418 678 465 678 517C678 570 649 619 601 653" fill="none" stroke="#FFFFFF" stroke-width="24" stroke-linecap="round" opacity="0.16"/>
    </g>
    <rect x="82" y="82" width="860" height="860" rx="218" fill="none" stroke="#FFFFFF" stroke-width="10" opacity="0.36"/>
    <rect x="75" y="75" width="874" height="874" rx="225" fill="none" stroke="#140C3E" stroke-width="8" opacity="0.18"/>
  </g>
  <g filter="url(#markShadow)" fill="url(#mark)">
    <rect x="312" y="286" width="116" height="452" rx="58"/>
    <rect x="312" y="286" width="430" height="118" rx="59"/>
    <rect x="312" y="453" width="348" height="112" rx="56"/>
    <rect x="312" y="620" width="430" height="118" rx="59"/>
  </g>
</svg>
